<mxfile host="app.diagrams.net" modified="2021-12-31T10:09:43.678Z" agent="5.0 (Windows NT 6.1; Win64; x64) AppleWebKit/537.36 (KHTML, like Gecko) Chrome/96.0.4664.110 Safari/537.36" etag="o4ANeq-sfqBRgiWdzH1v" version="16.1.2" type="github">
  <diagram id="uxqsRUV2GkK6Q9m55FC_" name="第 1 页">
    <mxGraphModel dx="981" dy="548" grid="1" gridSize="10" guides="1" tooltips="1" connect="1" arrows="1" fold="1" page="1" pageScale="1" pageWidth="827" pageHeight="1169" background="#ffffff" math="0" shadow="0">
      <root>
        <mxCell id="0" />
        <mxCell id="1" parent="0" />
        <mxCell id="5T4efrpIAURgU4KjZELb-25" style="edgeStyle=orthogonalEdgeStyle;rounded=0;orthogonalLoop=1;jettySize=auto;html=1;exitX=0.5;exitY=1;exitDx=0;exitDy=0;entryX=0.5;entryY=0;entryDx=0;entryDy=0;curved=1;" edge="1" parent="1" source="5T4efrpIAURgU4KjZELb-1" target="5T4efrpIAURgU4KjZELb-24">
          <mxGeometry relative="1" as="geometry">
            <mxPoint x="310" y="270" as="sourcePoint" />
          </mxGeometry>
        </mxCell>
        <mxCell id="5T4efrpIAURgU4KjZELb-1" value="" style="ellipse;whiteSpace=wrap;html=1;aspect=fixed;shadow=1;fillColor=#dae8fc;strokeColor=#6c8ebf;" vertex="1" parent="1">
          <mxGeometry x="320" y="200" width="40" height="40" as="geometry" />
        </mxCell>
        <mxCell id="5T4efrpIAURgU4KjZELb-2" value="" style="ellipse;whiteSpace=wrap;html=1;aspect=fixed;shadow=1;fillColor=#dae8fc;strokeColor=#6c8ebf;" vertex="1" parent="1">
          <mxGeometry x="480" y="440" width="40" height="40" as="geometry" />
        </mxCell>
        <mxCell id="5T4efrpIAURgU4KjZELb-3" value="&lt;font style=&quot;font-size: 15px&quot;&gt;not_hold[i-1]&lt;/font&gt;" style="text;html=1;strokeColor=none;fillColor=none;align=center;verticalAlign=middle;whiteSpace=wrap;rounded=0;shadow=1;fontFamily=Comic Sans MS;" vertex="1" parent="1">
          <mxGeometry x="280" y="160" width="120" height="40" as="geometry" />
        </mxCell>
        <mxCell id="5T4efrpIAURgU4KjZELb-4" value="&lt;font style=&quot;font-size: 15px&quot;&gt;not_hold[i]: 第i天结束&lt;b&gt;不持有股票&lt;/b&gt;时，&lt;span&gt;手中拥有的最大现金数&lt;br&gt;&lt;/span&gt;hold[i]: 第i天结束&lt;b&gt;持有股票&lt;/b&gt;时，手中拥有的最大现金数&lt;/font&gt;&lt;span&gt;&lt;br&gt;&lt;/span&gt;&lt;div class=&quot;okr-block-clipboard&quot;&gt;&lt;/div&gt;" style="text;html=1;strokeColor=none;fillColor=none;align=center;verticalAlign=middle;whiteSpace=wrap;rounded=0;shadow=1;fontFamily=Comic Sans MS;" vertex="1" parent="1">
          <mxGeometry x="200" y="80" width="440" height="80" as="geometry" />
        </mxCell>
        <mxCell id="5T4efrpIAURgU4KjZELb-5" style="edgeStyle=orthogonalEdgeStyle;curved=1;rounded=0;orthogonalLoop=1;jettySize=auto;html=1;exitX=0.5;exitY=1;exitDx=0;exitDy=0;fontFamily=Comic Sans MS;" edge="1" parent="1" source="5T4efrpIAURgU4KjZELb-7" target="5T4efrpIAURgU4KjZELb-11">
          <mxGeometry relative="1" as="geometry" />
        </mxCell>
        <mxCell id="5T4efrpIAURgU4KjZELb-26" style="edgeStyle=orthogonalEdgeStyle;curved=1;rounded=0;orthogonalLoop=1;jettySize=auto;html=1;exitX=0;exitY=0.5;exitDx=0;exitDy=0;entryX=0.5;entryY=0;entryDx=0;entryDy=0;" edge="1" parent="1" source="5T4efrpIAURgU4KjZELb-7" target="5T4efrpIAURgU4KjZELb-24">
          <mxGeometry relative="1" as="geometry" />
        </mxCell>
        <mxCell id="5T4efrpIAURgU4KjZELb-7" value="" style="ellipse;whiteSpace=wrap;html=1;aspect=fixed;shadow=1;fillColor=#f8cecc;strokeColor=#b85450;" vertex="1" parent="1">
          <mxGeometry x="480" y="200" width="40" height="40" as="geometry" />
        </mxCell>
        <mxCell id="5T4efrpIAURgU4KjZELb-8" value="&lt;font style=&quot;font-size: 15px&quot;&gt;&lt;span&gt;+prices[i]&lt;/span&gt;&lt;/font&gt;&lt;div class=&quot;okr-block-clipboard&quot;&gt;&lt;/div&gt;" style="text;html=1;strokeColor=none;fillColor=none;align=center;verticalAlign=middle;whiteSpace=wrap;rounded=0;shadow=1;fontFamily=Comic Sans MS;" vertex="1" parent="1">
          <mxGeometry x="500" y="240" width="80" height="30" as="geometry" />
        </mxCell>
        <mxCell id="5T4efrpIAURgU4KjZELb-9" value="&lt;font style=&quot;font-size: 15px&quot;&gt;not_hold[i]&lt;/font&gt;" style="text;html=1;strokeColor=none;fillColor=none;align=center;verticalAlign=middle;whiteSpace=wrap;rounded=0;shadow=1;fontFamily=Comic Sans MS;" vertex="1" parent="1">
          <mxGeometry x="440" y="480" width="120" height="40" as="geometry" />
        </mxCell>
        <mxCell id="5T4efrpIAURgU4KjZELb-10" style="edgeStyle=orthogonalEdgeStyle;curved=1;rounded=0;orthogonalLoop=1;jettySize=auto;html=1;exitX=0.5;exitY=1;exitDx=0;exitDy=0;entryX=0.5;entryY=0;entryDx=0;entryDy=0;fontFamily=Comic Sans MS;fontSize=15;" edge="1" parent="1" source="5T4efrpIAURgU4KjZELb-11" target="5T4efrpIAURgU4KjZELb-2">
          <mxGeometry relative="1" as="geometry" />
        </mxCell>
        <mxCell id="5T4efrpIAURgU4KjZELb-11" value="MAX" style="text;html=1;strokeColor=none;fillColor=none;align=center;verticalAlign=middle;whiteSpace=wrap;rounded=0;shadow=1;fontFamily=Comic Sans MS;fontSize=15;" vertex="1" parent="1">
          <mxGeometry x="470" y="360" width="60" height="30" as="geometry" />
        </mxCell>
        <mxCell id="5T4efrpIAURgU4KjZELb-12" value="" style="rounded=0;orthogonalLoop=1;jettySize=auto;html=1;exitX=1;exitY=0.5;exitDx=0;exitDy=0;entryX=0.5;entryY=0;entryDx=0;entryDy=0;edgeStyle=orthogonalEdgeStyle;curved=1;endArrow=none;" edge="1" parent="1" source="5T4efrpIAURgU4KjZELb-1" target="5T4efrpIAURgU4KjZELb-11">
          <mxGeometry relative="1" as="geometry">
            <mxPoint x="360" y="220" as="sourcePoint" />
            <mxPoint x="420" y="360" as="targetPoint" />
          </mxGeometry>
        </mxCell>
        <mxCell id="5T4efrpIAURgU4KjZELb-14" value="&lt;font style=&quot;font-size: 15px&quot;&gt;hold[i-1]&lt;/font&gt;" style="text;html=1;strokeColor=none;fillColor=none;align=center;verticalAlign=middle;whiteSpace=wrap;rounded=0;shadow=1;fontFamily=Comic Sans MS;" vertex="1" parent="1">
          <mxGeometry x="460" y="160" width="80" height="40" as="geometry" />
        </mxCell>
        <mxCell id="5T4efrpIAURgU4KjZELb-17" value="&lt;font style=&quot;font-size: 15px&quot;&gt;&lt;span&gt;-prices[i]&lt;/span&gt;&lt;/font&gt;&lt;div class=&quot;okr-block-clipboard&quot;&gt;&lt;/div&gt;" style="text;html=1;strokeColor=none;fillColor=none;align=center;verticalAlign=middle;whiteSpace=wrap;rounded=0;shadow=1;fontFamily=Comic Sans MS;" vertex="1" parent="1">
          <mxGeometry x="260" y="240" width="80" height="30" as="geometry" />
        </mxCell>
        <mxCell id="5T4efrpIAURgU4KjZELb-18" value="&lt;font style=&quot;font-size: 15px&quot;&gt;hold[i]&lt;/font&gt;" style="text;html=1;strokeColor=none;fillColor=none;align=center;verticalAlign=middle;whiteSpace=wrap;rounded=0;shadow=1;fontFamily=Comic Sans MS;" vertex="1" parent="1">
          <mxGeometry x="280" y="480" width="120" height="40" as="geometry" />
        </mxCell>
        <mxCell id="5T4efrpIAURgU4KjZELb-22" value="" style="ellipse;whiteSpace=wrap;html=1;aspect=fixed;shadow=1;fillColor=#f8cecc;strokeColor=#b85450;" vertex="1" parent="1">
          <mxGeometry x="320" y="440" width="40" height="40" as="geometry" />
        </mxCell>
        <mxCell id="5T4efrpIAURgU4KjZELb-23" style="edgeStyle=orthogonalEdgeStyle;curved=1;rounded=0;orthogonalLoop=1;jettySize=auto;html=1;exitX=0.5;exitY=1;exitDx=0;exitDy=0;entryX=0.5;entryY=0;entryDx=0;entryDy=0;fontFamily=Comic Sans MS;fontSize=15;" edge="1" parent="1" source="5T4efrpIAURgU4KjZELb-24" target="5T4efrpIAURgU4KjZELb-22">
          <mxGeometry relative="1" as="geometry" />
        </mxCell>
        <mxCell id="5T4efrpIAURgU4KjZELb-24" value="MAX" style="text;html=1;strokeColor=none;fillColor=none;align=center;verticalAlign=middle;whiteSpace=wrap;rounded=0;shadow=1;fontFamily=Comic Sans MS;fontSize=15;" vertex="1" parent="1">
          <mxGeometry x="310" y="360" width="60" height="30" as="geometry" />
        </mxCell>
        <mxCell id="5T4efrpIAURgU4KjZELb-30" value="&lt;font style=&quot;font-size: 12px&quot;&gt;&lt;font style=&quot;font-size: 12px&quot;&gt;&lt;b&gt;线索1&lt;/b&gt;：可以&lt;span style=&quot;color: rgb(33 , 40 , 53) ; background-color: rgb(255 , 255 , 255)&quot;&gt;多次买卖一支股票&lt;/span&gt;&lt;b&gt;&lt;br&gt;线索2&lt;/b&gt;：&lt;/font&gt;&lt;span style=&quot;color: rgb(33 , 40 , 53) ; background-color: rgb(255 , 255 , 255)&quot;&gt;你不能同时参与多笔交易&lt;/span&gt;&lt;/font&gt;" style="text;html=1;strokeColor=none;fillColor=none;align=center;verticalAlign=middle;whiteSpace=wrap;rounded=0;" vertex="1" parent="1">
          <mxGeometry x="280" y="40" width="280" height="40" as="geometry" />
        </mxCell>
        <mxCell id="5T4efrpIAURgU4KjZELb-31" value="" style="endArrow=none;html=1;rounded=0;fontSize=12;curved=1;startArrow=none;" edge="1" parent="1" source="5T4efrpIAURgU4KjZELb-37">
          <mxGeometry width="50" height="50" relative="1" as="geometry">
            <mxPoint x="840" y="360" as="sourcePoint" />
            <mxPoint x="1120" y="360" as="targetPoint" />
          </mxGeometry>
        </mxCell>
        <mxCell id="5T4efrpIAURgU4KjZELb-32" value="" style="shape=waypoint;sketch=0;fillStyle=solid;size=6;pointerEvents=1;points=[];fillColor=none;resizable=0;rotatable=0;perimeter=centerPerimeter;snapToPoint=1;fontSize=12;" vertex="1" parent="1">
          <mxGeometry x="820" y="340" width="40" height="40" as="geometry" />
        </mxCell>
        <mxCell id="5T4efrpIAURgU4KjZELb-33" value="" style="shape=waypoint;sketch=0;fillStyle=solid;size=6;pointerEvents=1;points=[];fillColor=none;resizable=0;rotatable=0;perimeter=centerPerimeter;snapToPoint=1;fontSize=12;" vertex="1" parent="1">
          <mxGeometry x="860" y="340" width="40" height="40" as="geometry" />
        </mxCell>
        <mxCell id="5T4efrpIAURgU4KjZELb-34" value="" style="shape=waypoint;sketch=0;fillStyle=solid;size=6;pointerEvents=1;points=[];fillColor=none;resizable=0;rotatable=0;perimeter=centerPerimeter;snapToPoint=1;fontSize=12;" vertex="1" parent="1">
          <mxGeometry x="900" y="340" width="40" height="40" as="geometry" />
        </mxCell>
        <mxCell id="5T4efrpIAURgU4KjZELb-35" value="" style="shape=waypoint;sketch=0;fillStyle=solid;size=6;pointerEvents=1;points=[];fillColor=none;resizable=0;rotatable=0;perimeter=centerPerimeter;snapToPoint=1;fontSize=12;" vertex="1" parent="1">
          <mxGeometry x="940" y="340" width="40" height="40" as="geometry" />
        </mxCell>
        <mxCell id="5T4efrpIAURgU4KjZELb-36" value="" style="shape=waypoint;sketch=0;fillStyle=solid;size=6;pointerEvents=1;points=[];fillColor=none;resizable=0;rotatable=0;perimeter=centerPerimeter;snapToPoint=1;fontSize=12;" vertex="1" parent="1">
          <mxGeometry x="980" y="340" width="40" height="40" as="geometry" />
        </mxCell>
        <mxCell id="5T4efrpIAURgU4KjZELb-37" value="" style="shape=waypoint;sketch=0;fillStyle=solid;size=6;pointerEvents=1;points=[];fillColor=none;resizable=0;rotatable=0;perimeter=centerPerimeter;snapToPoint=1;fontSize=12;" vertex="1" parent="1">
          <mxGeometry x="1020" y="340" width="40" height="40" as="geometry" />
        </mxCell>
        <mxCell id="5T4efrpIAURgU4KjZELb-38" value="" style="endArrow=none;html=1;rounded=0;fontSize=12;curved=1;" edge="1" parent="1">
          <mxGeometry width="50" height="50" relative="1" as="geometry">
            <mxPoint x="880" y="359.9999999999999" as="sourcePoint" />
            <mxPoint x="1080" y="360" as="targetPoint" />
          </mxGeometry>
        </mxCell>
        <mxCell id="5T4efrpIAURgU4KjZELb-39" value="" style="shape=waypoint;sketch=0;fillStyle=solid;size=6;pointerEvents=1;points=[];fillColor=none;resizable=0;rotatable=0;perimeter=centerPerimeter;snapToPoint=1;fontSize=12;" vertex="1" parent="1">
          <mxGeometry x="1060" y="340" width="40" height="40" as="geometry" />
        </mxCell>
        <mxCell id="5T4efrpIAURgU4KjZELb-41" value="0" style="rounded=0;whiteSpace=wrap;html=1;fontSize=12;opacity=0;" vertex="1" parent="1">
          <mxGeometry x="860" y="360" width="40" height="40" as="geometry" />
        </mxCell>
        <mxCell id="5T4efrpIAURgU4KjZELb-42" value="1" style="rounded=0;whiteSpace=wrap;html=1;fontSize=12;opacity=0;" vertex="1" parent="1">
          <mxGeometry x="900" y="360" width="40" height="40" as="geometry" />
        </mxCell>
        <mxCell id="5T4efrpIAURgU4KjZELb-43" value="2" style="rounded=0;whiteSpace=wrap;html=1;fontSize=12;opacity=0;" vertex="1" parent="1">
          <mxGeometry x="940" y="360" width="40" height="40" as="geometry" />
        </mxCell>
        <mxCell id="5T4efrpIAURgU4KjZELb-44" value="3" style="rounded=0;whiteSpace=wrap;html=1;fontSize=12;opacity=0;" vertex="1" parent="1">
          <mxGeometry x="980" y="360" width="40" height="40" as="geometry" />
        </mxCell>
        <mxCell id="5T4efrpIAURgU4KjZELb-45" value="4" style="rounded=0;whiteSpace=wrap;html=1;fontSize=12;opacity=0;" vertex="1" parent="1">
          <mxGeometry x="1020" y="360" width="40" height="40" as="geometry" />
        </mxCell>
        <mxCell id="5T4efrpIAURgU4KjZELb-46" value="5" style="rounded=0;whiteSpace=wrap;html=1;fontSize=12;opacity=0;" vertex="1" parent="1">
          <mxGeometry x="1060" y="360" width="40" height="40" as="geometry" />
        </mxCell>
        <mxCell id="5T4efrpIAURgU4KjZELb-48" value="" style="endArrow=none;html=1;rounded=0;fontSize=12;curved=1;" edge="1" parent="1">
          <mxGeometry width="50" height="50" relative="1" as="geometry">
            <mxPoint x="800" y="359" as="sourcePoint" />
            <mxPoint x="880" y="359.31" as="targetPoint" />
          </mxGeometry>
        </mxCell>
        <mxCell id="5T4efrpIAURgU4KjZELb-49" value="" style="endArrow=none;html=1;rounded=0;fontSize=12;curved=1;entryX=0.458;entryY=0.541;entryDx=0;entryDy=0;entryPerimeter=0;startArrow=none;" edge="1" parent="1" source="5T4efrpIAURgU4KjZELb-51" target="5T4efrpIAURgU4KjZELb-32">
          <mxGeometry width="50" height="50" relative="1" as="geometry">
            <mxPoint x="840" y="80" as="sourcePoint" />
            <mxPoint x="850" y="290" as="targetPoint" />
          </mxGeometry>
        </mxCell>
        <mxCell id="5T4efrpIAURgU4KjZELb-51" value="" style="shape=waypoint;sketch=0;fillStyle=solid;size=6;pointerEvents=1;points=[];fillColor=none;resizable=0;rotatable=0;perimeter=centerPerimeter;snapToPoint=1;fontSize=12;" vertex="1" parent="1">
          <mxGeometry x="820" y="300" width="40" height="40" as="geometry" />
        </mxCell>
        <mxCell id="5T4efrpIAURgU4KjZELb-52" value="" style="endArrow=none;html=1;rounded=0;fontSize=12;curved=1;entryDx=0;entryDy=0;entryPerimeter=0;startArrow=none;" edge="1" parent="1" source="5T4efrpIAURgU4KjZELb-54" target="5T4efrpIAURgU4KjZELb-51">
          <mxGeometry width="50" height="50" relative="1" as="geometry">
            <mxPoint x="840" y="80" as="sourcePoint" />
            <mxPoint x="840" y="360" as="targetPoint" />
          </mxGeometry>
        </mxCell>
        <mxCell id="5T4efrpIAURgU4KjZELb-53" value="" style="shape=waypoint;sketch=0;fillStyle=solid;size=6;pointerEvents=1;points=[];fillColor=none;resizable=0;rotatable=0;perimeter=centerPerimeter;snapToPoint=1;fontSize=12;" vertex="1" parent="1">
          <mxGeometry x="820" y="260" width="40" height="40" as="geometry" />
        </mxCell>
        <mxCell id="5T4efrpIAURgU4KjZELb-54" value="" style="shape=waypoint;sketch=0;fillStyle=solid;size=6;pointerEvents=1;points=[];fillColor=none;resizable=0;rotatable=0;perimeter=centerPerimeter;snapToPoint=1;fontSize=12;" vertex="1" parent="1">
          <mxGeometry x="820" y="220" width="40" height="40" as="geometry" />
        </mxCell>
        <mxCell id="5T4efrpIAURgU4KjZELb-55" value="" style="endArrow=none;html=1;rounded=0;fontSize=12;curved=1;entryDx=0;entryDy=0;entryPerimeter=0;startArrow=none;" edge="1" parent="1" source="5T4efrpIAURgU4KjZELb-56" target="5T4efrpIAURgU4KjZELb-54">
          <mxGeometry width="50" height="50" relative="1" as="geometry">
            <mxPoint x="840" y="80" as="sourcePoint" />
            <mxPoint x="840" y="320" as="targetPoint" />
          </mxGeometry>
        </mxCell>
        <mxCell id="5T4efrpIAURgU4KjZELb-56" value="" style="shape=waypoint;sketch=0;fillStyle=solid;size=6;pointerEvents=1;points=[];fillColor=none;resizable=0;rotatable=0;perimeter=centerPerimeter;snapToPoint=1;fontSize=12;" vertex="1" parent="1">
          <mxGeometry x="820" y="180" width="40" height="40" as="geometry" />
        </mxCell>
        <mxCell id="5T4efrpIAURgU4KjZELb-57" value="" style="endArrow=none;html=1;rounded=0;fontSize=12;curved=1;entryDx=0;entryDy=0;entryPerimeter=0;startArrow=none;" edge="1" parent="1" source="5T4efrpIAURgU4KjZELb-59" target="5T4efrpIAURgU4KjZELb-56">
          <mxGeometry width="50" height="50" relative="1" as="geometry">
            <mxPoint x="840" y="80" as="sourcePoint" />
            <mxPoint x="840" y="240" as="targetPoint" />
          </mxGeometry>
        </mxCell>
        <mxCell id="5T4efrpIAURgU4KjZELb-58" value="" style="shape=waypoint;sketch=0;fillStyle=solid;size=6;pointerEvents=1;points=[];fillColor=none;resizable=0;rotatable=0;perimeter=centerPerimeter;snapToPoint=1;fontSize=12;" vertex="1" parent="1">
          <mxGeometry x="820" y="140" width="40" height="40" as="geometry" />
        </mxCell>
        <mxCell id="5T4efrpIAURgU4KjZELb-59" value="" style="shape=waypoint;sketch=0;fillStyle=solid;size=6;pointerEvents=1;points=[];fillColor=none;resizable=0;rotatable=0;perimeter=centerPerimeter;snapToPoint=1;fontSize=12;" vertex="1" parent="1">
          <mxGeometry x="820" y="100" width="40" height="40" as="geometry" />
        </mxCell>
        <mxCell id="5T4efrpIAURgU4KjZELb-60" value="" style="endArrow=none;html=1;rounded=0;fontSize=12;curved=1;entryDx=0;entryDy=0;entryPerimeter=0;" edge="1" parent="1" target="5T4efrpIAURgU4KjZELb-59">
          <mxGeometry width="50" height="50" relative="1" as="geometry">
            <mxPoint x="840" y="40" as="sourcePoint" />
            <mxPoint x="840" y="200" as="targetPoint" />
          </mxGeometry>
        </mxCell>
        <mxCell id="5T4efrpIAURgU4KjZELb-61" value="1" style="rounded=0;whiteSpace=wrap;html=1;fontSize=12;opacity=0;" vertex="1" parent="1">
          <mxGeometry x="810" y="300" width="40" height="40" as="geometry" />
        </mxCell>
        <mxCell id="5T4efrpIAURgU4KjZELb-62" value="2" style="rounded=0;whiteSpace=wrap;html=1;fontSize=12;opacity=0;" vertex="1" parent="1">
          <mxGeometry x="810" y="260" width="40" height="40" as="geometry" />
        </mxCell>
        <mxCell id="5T4efrpIAURgU4KjZELb-63" value="3" style="rounded=0;whiteSpace=wrap;html=1;fontSize=12;opacity=0;" vertex="1" parent="1">
          <mxGeometry x="810" y="220" width="40" height="40" as="geometry" />
        </mxCell>
        <mxCell id="5T4efrpIAURgU4KjZELb-64" value="4" style="rounded=0;whiteSpace=wrap;html=1;fontSize=12;opacity=0;" vertex="1" parent="1">
          <mxGeometry x="810" y="180" width="40" height="40" as="geometry" />
        </mxCell>
        <mxCell id="5T4efrpIAURgU4KjZELb-65" value="5" style="rounded=0;whiteSpace=wrap;html=1;fontSize=12;opacity=0;" vertex="1" parent="1">
          <mxGeometry x="810" y="140" width="40" height="40" as="geometry" />
        </mxCell>
        <mxCell id="5T4efrpIAURgU4KjZELb-66" value="6" style="rounded=0;whiteSpace=wrap;html=1;fontSize=12;opacity=0;" vertex="1" parent="1">
          <mxGeometry x="810" y="100" width="40" height="40" as="geometry" />
        </mxCell>
        <mxCell id="5T4efrpIAURgU4KjZELb-67" value="7" style="rounded=0;whiteSpace=wrap;html=1;fontSize=12;opacity=0;" vertex="1" parent="1">
          <mxGeometry x="810" y="60" width="40" height="40" as="geometry" />
        </mxCell>
        <mxCell id="5T4efrpIAURgU4KjZELb-68" value="" style="shape=waypoint;sketch=0;fillStyle=solid;size=6;pointerEvents=1;points=[];fillColor=none;resizable=0;rotatable=0;perimeter=centerPerimeter;snapToPoint=1;fontSize=12;" vertex="1" parent="1">
          <mxGeometry x="820" y="60" width="40" height="40" as="geometry" />
        </mxCell>
        <mxCell id="5T4efrpIAURgU4KjZELb-69" value="" style="shape=waypoint;sketch=0;fillStyle=solid;size=6;pointerEvents=1;points=[];fillColor=none;resizable=0;rotatable=0;perimeter=centerPerimeter;snapToPoint=1;fontSize=12;" vertex="1" parent="1">
          <mxGeometry x="860" y="60" width="40" height="40" as="geometry" />
        </mxCell>
        <mxCell id="5T4efrpIAURgU4KjZELb-70" value="" style="shape=waypoint;sketch=0;fillStyle=solid;size=6;pointerEvents=1;points=[];fillColor=none;resizable=0;rotatable=0;perimeter=centerPerimeter;snapToPoint=1;fontSize=12;" vertex="1" parent="1">
          <mxGeometry x="900" y="300" width="40" height="40" as="geometry" />
        </mxCell>
        <mxCell id="5T4efrpIAURgU4KjZELb-71" value="" style="shape=waypoint;sketch=0;fillStyle=solid;size=6;pointerEvents=1;points=[];fillColor=none;resizable=0;rotatable=0;perimeter=centerPerimeter;snapToPoint=1;fontSize=12;" vertex="1" parent="1">
          <mxGeometry x="940" y="140" width="40" height="40" as="geometry" />
        </mxCell>
        <mxCell id="5T4efrpIAURgU4KjZELb-72" value="" style="shape=waypoint;sketch=0;fillStyle=solid;size=6;pointerEvents=1;points=[];fillColor=none;resizable=0;rotatable=0;perimeter=centerPerimeter;snapToPoint=1;fontSize=12;" vertex="1" parent="1">
          <mxGeometry x="980" y="220" width="40" height="40" as="geometry" />
        </mxCell>
        <mxCell id="5T4efrpIAURgU4KjZELb-73" value="" style="shape=waypoint;sketch=0;fillStyle=solid;size=6;pointerEvents=1;points=[];fillColor=none;resizable=0;rotatable=0;perimeter=centerPerimeter;snapToPoint=1;fontSize=12;" vertex="1" parent="1">
          <mxGeometry x="1020" y="100" width="40" height="40" as="geometry" />
        </mxCell>
        <mxCell id="5T4efrpIAURgU4KjZELb-74" value="" style="shape=waypoint;sketch=0;fillStyle=solid;size=6;pointerEvents=1;points=[];fillColor=none;resizable=0;rotatable=0;perimeter=centerPerimeter;snapToPoint=1;fontSize=12;" vertex="1" parent="1">
          <mxGeometry x="1060" y="180" width="40" height="40" as="geometry" />
        </mxCell>
        <mxCell id="5T4efrpIAURgU4KjZELb-75" value="" style="endArrow=none;html=1;rounded=0;fontSize=12;curved=1;" edge="1" parent="1" source="5T4efrpIAURgU4KjZELb-69" target="5T4efrpIAURgU4KjZELb-70">
          <mxGeometry width="50" height="50" relative="1" as="geometry">
            <mxPoint x="900" y="120" as="sourcePoint" />
            <mxPoint x="950" y="70" as="targetPoint" />
          </mxGeometry>
        </mxCell>
        <mxCell id="5T4efrpIAURgU4KjZELb-76" value="" style="endArrow=none;html=1;rounded=0;fontSize=12;curved=1;entryX=0.5;entryY=0.5;entryDx=0;entryDy=0;entryPerimeter=0;fillColor=#f8cecc;strokeColor=#b85450;" edge="1" parent="1" target="5T4efrpIAURgU4KjZELb-71">
          <mxGeometry width="50" height="50" relative="1" as="geometry">
            <mxPoint x="920" y="320" as="sourcePoint" />
            <mxPoint x="980" y="210" as="targetPoint" />
          </mxGeometry>
        </mxCell>
        <mxCell id="5T4efrpIAURgU4KjZELb-77" value="" style="endArrow=none;html=1;rounded=0;fontSize=12;curved=1;" edge="1" parent="1" source="5T4efrpIAURgU4KjZELb-71" target="5T4efrpIAURgU4KjZELb-72">
          <mxGeometry width="50" height="50" relative="1" as="geometry">
            <mxPoint x="990" y="200" as="sourcePoint" />
            <mxPoint x="1040" y="150" as="targetPoint" />
          </mxGeometry>
        </mxCell>
        <mxCell id="5T4efrpIAURgU4KjZELb-78" value="" style="endArrow=none;html=1;rounded=0;fontSize=12;curved=1;fillColor=#f8cecc;strokeColor=#b85450;" edge="1" parent="1" target="5T4efrpIAURgU4KjZELb-73">
          <mxGeometry width="50" height="50" relative="1" as="geometry">
            <mxPoint x="1000" y="240" as="sourcePoint" />
            <mxPoint x="1050" y="180" as="targetPoint" />
          </mxGeometry>
        </mxCell>
        <mxCell id="5T4efrpIAURgU4KjZELb-79" value="" style="endArrow=none;html=1;rounded=0;fontSize=12;curved=1;" edge="1" parent="1" source="5T4efrpIAURgU4KjZELb-73" target="5T4efrpIAURgU4KjZELb-74">
          <mxGeometry width="50" height="50" relative="1" as="geometry">
            <mxPoint x="1090" y="310" as="sourcePoint" />
            <mxPoint x="1140" y="260" as="targetPoint" />
          </mxGeometry>
        </mxCell>
        <mxCell id="5T4efrpIAURgU4KjZELb-81" value="" style="line;strokeWidth=1;direction=south;html=1;fontSize=12;dashed=1;" vertex="1" parent="1">
          <mxGeometry x="955" y="170" width="10" height="150" as="geometry" />
        </mxCell>
        <mxCell id="5T4efrpIAURgU4KjZELb-82" value="" style="line;strokeWidth=1;direction=south;html=1;fontSize=12;dashed=1;" vertex="1" parent="1">
          <mxGeometry x="1035" y="130" width="10" height="110" as="geometry" />
        </mxCell>
        <mxCell id="5T4efrpIAURgU4KjZELb-83" value="&lt;font face=&quot;Comic Sans MS&quot;&gt;5-1=4&lt;/font&gt;" style="text;html=1;strokeColor=none;fillColor=none;align=center;verticalAlign=middle;whiteSpace=wrap;rounded=0;dashed=1;fontSize=12;" vertex="1" parent="1">
          <mxGeometry x="955" y="250" width="60" height="30" as="geometry" />
        </mxCell>
        <mxCell id="5T4efrpIAURgU4KjZELb-84" value="&lt;font face=&quot;Comic Sans MS&quot;&gt;6-3=3&lt;/font&gt;" style="text;html=1;strokeColor=none;fillColor=none;align=center;verticalAlign=middle;whiteSpace=wrap;rounded=0;dashed=1;fontSize=12;" vertex="1" parent="1">
          <mxGeometry x="1040" y="210" width="60" height="30" as="geometry" />
        </mxCell>
        <mxCell id="5T4efrpIAURgU4KjZELb-85" value="&lt;div class=&quot;okr-block-clipboard&quot;&gt;&lt;/div&gt;&lt;div&gt;最大利润 = 4 + 3 = 7&lt;/div&gt;" style="text;html=1;strokeColor=none;fillColor=none;align=center;verticalAlign=middle;whiteSpace=wrap;rounded=0;dashed=1;fontFamily=Comic Sans MS;fontSize=12;" vertex="1" parent="1">
          <mxGeometry x="920" y="40" width="120" height="40" as="geometry" />
        </mxCell>
      </root>
    </mxGraphModel>
  </diagram>
</mxfile>
